<svg version="1.0" xmlns="http://www.w3.org/2000/svg" width="300px" height="300px" viewBox="0 0 300 300"
  preserveAspectRatio="xMidYMid meet">
  <g transform="translate(0,300) scale(0.1,-0.1)" fill="#fff">
    <path d="M378 2598 c-12 -21 -23 -36 -26 -34 -2 3 -12 -4 -23 -15 -37 -37 -25
-53 74 -102 50 -25 111 -50 135 -57 27 -7 68 -33 115 -73 111 -95 153 -127
277 -212 63 -43 174 -121 245 -174 431 -315 394 -285 373 -307 -16 -17 -20
-17 -50 -2 -18 9 -107 71 -198 139 -269 202 -441 314 -610 399 -71 36 -210 90
-231 90 -42 0 86 -135 240 -253 51 -40 150 -119 220 -177 69 -58 173 -143 231
-189 58 -47 134 -110 169 -140 42 -36 72 -55 86 -53 11 2 36 -8 55 -20 28 -19
36 -31 38 -62 2 -20 -3 -45 -10 -54 -12 -15 -11 -16 5 -3 11 9 17 27 17 53 0
31 -7 46 -35 75 -19 20 -35 38 -35 40 0 2 12 8 26 14 15 5 25 12 22 14 -2 3
-23 -2 -45 -11 -40 -16 -42 -16 -65 6 -12 13 -16 19 -8 15 8 -4 5 3 -7 16 -12
12 -26 20 -30 15 -4 -4 -1 -11 6 -15 7 -5 9 -11 4 -14 -9 -6 -117 78 -378 293
-71 59 -177 143 -235 186 -106 80 -260 219 -260 235 0 15 19 10 110 -26 201
-80 463 -252 875 -573 78 -61 97 -81 89 -93 -3 -5 1 -9 9 -9 8 0 46 -26 84
-57 l71 -57 -21 -27 c-12 -14 -40 -48 -62 -74 -26 -31 -36 -50 -27 -52 6 -3
12 -11 12 -18 0 -8 17 -26 37 -40 21 -14 106 -91 190 -171 243 -232 391 -354
528 -434 61 -36 29 -8 -50 42 -115 74 -277 213 -525 452 -52 50 -112 104 -132
120 -21 16 -38 32 -38 37 0 12 110 139 121 139 5 0 9 -5 9 -10 0 -6 30 -42 68
-79 79 -81 92 -96 93 -113 0 -7 4 -4 9 7 8 18 9 18 9 2 1 -10 5 -16 10 -12 5
3 16 -3 23 -13 7 -10 23 -24 36 -31 12 -6 22 -19 22 -27 0 -8 5 -12 11 -9 6 4
13 -2 16 -14 3 -12 13 -21 25 -21 14 0 18 -5 14 -15 -4 -10 1 -15 14 -15 11 0
20 -5 20 -10 0 -6 11 -16 25 -22 14 -6 25 -17 25 -25 0 -7 3 -12 8 -11 16 3
42 -15 42 -29 0 -9 6 -13 15 -9 8 3 14 2 14 -2 -1 -4 0 -18 1 -32 2 -18 4 -20
7 -7 6 22 4 23 47 -16 20 -18 36 -43 36 -55 0 -11 5 -24 11 -28 8 -4 9 1 4 16
-5 15 -4 20 4 16 6 -4 11 -19 12 -34 l1 -27 7 25 c6 22 8 23 14 7 4 -11 4 -23
1 -29 -4 -5 3 -8 15 -6 26 4 112 -65 245 -196 l91 -89 -60 6 c-45 5 -54 4 -35
-4 13 -5 45 -9 70 -7 l45 3 -120 120 c-122 123 -304 287 -715 645 -149 130
-295 272 -319 312 -13 21 -13 22 3 9 9 -8 19 -11 23 -7 3 3 1 6 -6 6 -7 0 -10
10 -7 25 3 13 2 24 -2 24 -19 -3 -23 2 -12 16 9 11 15 12 25 2 7 -7 55 -43
105 -82 51 -38 145 -110 210 -160 166 -127 239 -179 322 -231 81 -50 193 -150
178 -159 -5 -3 -33 18 -62 47 -29 30 -82 70 -118 90 -36 20 -106 67 -156 105
-138 103 -312 236 -376 288 l-57 46 -16 -31 -16 -30 35 0 c25 0 49 -12 93 -45
32 -25 117 -90 188 -145 72 -55 189 -145 260 -200 72 -55 147 -119 167 -142
l37 -42 43 15 c47 15 191 139 196 169 6 32 -92 104 -252 188 -151 78 -272 158
-576 378 -80 58 -280 196 -445 306 -165 111 -334 226 -375 256 -140 103 -345
270 -367 300 -12 17 -39 36 -60 42 -21 7 -54 23 -74 37 -27 17 -48 23 -78 21
-37 -2 -44 -6 -63 -40z m62 -41 c4 -5 18 -2 31 6 17 11 31 12 48 6 23 -9 24
-10 5 -32 -11 -12 -12 -17 -4 -11 8 6 22 11 30 11 8 0 20 2 25 3 34 8 32 -6
-10 -52 -44 -49 -70 -61 -85 -39 -3 5 -36 20 -75 36 -85 33 -92 39 -40 32 22
-3 32 -3 23 -1 -26 8 -22 34 10 67 l27 29 3 -24 c2 -13 7 -27 12 -31z m227
-79 c19 -18 47 -45 61 -60 14 -16 32 -28 39 -28 8 0 21 -13 30 -29 9 -15 31
-34 49 -40 35 -13 124 -94 124 -114 0 -9 3 -9 8 1 6 9 22 2 60 -29 29 -22 52
-45 52 -50 0 -6 5 -7 10 -4 6 3 13 -1 16 -9 3 -9 14 -16 24 -16 10 0 21 -7 24
-16 4 -9 13 -14 21 -10 15 5 20 1 51 -39 9 -11 13 -14 9 -7 -3 6 -3 12 1 12
14 0 44 -33 44 -49 0 -14 2 -14 10 -1 5 8 10 10 10 4 0 -7 12 -15 26 -18 14
-4 37 -19 51 -34 15 -15 23 -21 18 -13 -4 7 6 3 24 -10 17 -12 31 -27 31 -33
0 -5 3 -6 7 -3 8 9 34 -13 28 -23 -3 -5 4 -6 15 -3 11 3 20 1 20 -5 0 -6 11
-17 24 -24 44 -24 151 -101 159 -115 5 -7 12 -11 18 -8 5 4 9 0 9 -7 0 -11 45
-42 126 -86 13 -7 32 -24 40 -38 9 -13 23 -24 30 -24 8 0 22 -9 31 -20 10 -11
22 -20 28 -20 5 0 30 -16 55 -35 25 -19 55 -42 68 -52 13 -10 29 -23 35 -28
28 -25 105 -64 113 -57 5 4 3 -1 -4 -10 -11 -13 -11 -16 0 -14 7 1 18 5 25 9
6 4 19 -2 30 -15 10 -13 32 -24 48 -26 35 -4 131 -46 193 -85 45 -29 59 -64
21 -52 -13 5 -19 3 -15 -3 3 -5 -1 -12 -9 -16 -8 -3 -15 -13 -15 -21 0 -9 -4
-13 -10 -10 -5 3 -10 0 -10 -8 0 -26 -26 -26 -69 0 -46 27 -49 46 -8 51 36 4
24 22 -14 22 -18 0 -28 -4 -24 -10 13 -21 -6 -30 -31 -14 -13 9 -27 14 -31 10
-3 -3 -1 -6 5 -6 6 0 17 -6 24 -13 7 -7 36 -27 64 -45 57 -36 72 -35 117 10
16 15 35 28 44 28 17 0 13 -6 -42 -67 -16 -18 -36 -39 -43 -48 -12 -14 -18
-11 -51 23 -21 21 -78 63 -127 92 -108 64 -304 207 -589 429 -104 81 -140 109
-405 309 -197 148 -244 182 -256 182 -3 0 0 -8 7 -17 8 -10 -2 -6 -21 8 -19
15 -35 32 -35 39 0 15 -35 41 -47 34 -10 -6 -141 94 -253 195 -44 40 -103 87
-132 104 -54 33 -65 47 -37 47 16 0 55 -18 64 -29 8 -10 121 -76 126 -73 2 1
4 4 4 7 0 3 -2 4 -3 3 -9 -7 -36 25 -30 35 3 6 1 7 -6 3 -13 -8 -44 12 -36 23
2 4 -6 7 -18 7 -13 -1 -21 4 -19 12 1 8 -2 11 -8 7 -5 -3 -10 -1 -10 4 0 6
-11 11 -25 11 -29 0 -33 17 -7 36 25 19 31 18 69 -18z m923 -828 c18 -16 21
-23 12 -32 -9 -9 -8 -16 5 -30 22 -24 -4 -25 -32 0 -11 9 -18 16 -16 15 2 -2
10 2 18 8 11 10 11 16 -2 35 -19 29 -15 30 15 4z" />
    <path d="M494 2495 c-5 -11 -11 -12 -24 -5 -28 15 -37 12 -15 -4 29 -20 38
-20 47 3 4 12 5 21 2 21 -2 0 -7 -7 -10 -15z" />
    <path d="M776 2332 c-3 -5 16 -24 41 -43 26 -19 64 -47 85 -62 21 -15 38 -23
38 -17 0 14 -26 41 -37 39 -21 -4 -33 2 -33 17 0 8 -4 13 -9 9 -5 -3 -12 4
-16 15 -4 11 -10 18 -14 15 -4 -2 -17 4 -29 15 -12 11 -23 16 -26 12z" />
    <path d="M976 2165 c31 -25 40 -25 31 -2 -3 8 -18 17 -32 20 l-27 5 28 -23z" />
    <path d="M1020 2128 c0 -4 6 -8 13 -8 15 -1 52 -31 60 -50 3 -10 6 -10 6 -2 1
6 9 12 18 12 9 0 13 3 9 8 -8 7 -13 8 -42 11 -8 0 -12 6 -9 11 3 6 -1 10 -10
10 -9 0 -14 4 -10 9 3 6 -4 9 -15 8 -11 -1 -20 -5 -20 -9z" />
    <path d="M1120 2060 c-11 -7 -4 -14 33 -30 26 -12 47 -25 47 -29 0 -5 6 -11
14 -14 8 -3 13 0 12 6 -3 25 -18 37 -43 37 -16 0 -27 7 -30 20 -6 22 -11 24
-33 10z" />
    <path d="M1355 1870 c3 -5 12 -10 18 -10 7 0 23 -10 37 -23 14 -12 37 -30 51
-39 26 -17 27 -16 21 4 -4 15 -1 19 9 16 8 -3 13 -11 11 -18 -3 -15 15 -30 37
-30 10 0 5 10 -13 29 -32 33 -71 49 -62 24 11 -26 -18 -8 -33 21 -9 20 -16 25
-21 16 -6 -10 -8 -10 -12 0 -2 7 -14 15 -27 17 -13 2 -20 -1 -16 -7z" />
    <path d="M1595 1700 c3 -5 11 -10 16 -10 5 0 21 -11 35 -25 19 -19 32 -24 47
-19 19 6 20 5 8 -10 -7 -9 -9 -16 -4 -16 5 0 18 -8 29 -18 10 -10 37 -31 59
-47 22 -17 46 -36 53 -42 18 -17 27 -16 43 3 12 15 11 16 -9 10 -19 -6 -25 -4
-29 12 -3 14 -10 19 -21 15 -11 -5 -14 -2 -10 9 5 11 0 14 -19 10 -19 -4 -24
-1 -21 9 3 8 1 22 -4 32 -7 14 -12 16 -23 7 -18 -15 -40 -3 -26 14 13 15 -21
38 -44 30 -9 -4 -15 -1 -15 8 0 8 -11 20 -25 26 -32 15 -48 15 -40 2z" />
    <path d="M1886 1494 c-4 -9 -4 -19 -1 -22 3 -3 5 -2 5 2 0 4 15 -3 33 -15 17
-12 29 -19 25 -14 -4 4 -3 14 4 22 10 12 7 13 -16 7 -25 -6 -28 -5 -21 15 8
26 -19 30 -29 5z" />
    <path d="M1967 1450 c-3 -11 -1 -20 5 -20 5 0 7 -4 4 -9 -5 -8 15 -30 41 -45
9 -5 11 -2 7 8 -3 8 -12 17 -20 20 -10 4 -13 13 -9 25 3 10 -1 23 -9 30 -11 9
-15 7 -19 -9z" />
    <path d="M2047 1381 c-5 -20 35 -71 56 -71 7 0 1 9 -13 19 -19 15 -22 22 -13
33 9 11 8 16 -6 25 -16 10 -20 9 -24 -6z" />
    <path d="M2127 1319 c-4 -16 -3 -18 9 -8 11 9 15 7 20 -7 14 -43 27 -62 41
-57 11 4 10 8 -3 18 -9 6 -14 17 -10 23 3 6 -7 20 -23 31 l-29 21 -5 -21z" />
    <path d="M2287 1255 c-11 -7 -25 -11 -32 -9 -24 10 -27 -17 -4 -37 12 -10 18
-19 13 -19 -15 0 20 -20 35 -20 8 0 3 9 -12 23 -30 25 -34 37 -14 37 8 0 22 9
32 20 21 23 9 26 -18 5z" />
    <path d="M2332 1178 c-18 -18 -15 -24 13 -23 32 2 44 13 25 25 -20 13 -24 12
-38 -2z" />
    <path d="M1463 1264 c-18 -8 -33 -21 -33 -29 0 -19 3 -19 51 5 23 12 49 18 59
15 26 -8 47 4 29 16 -20 13 -69 9 -106 -7z" />
    <path d="M2475 533 c12 -12 120 -53 138 -52 7 0 -15 10 -48 23 -33 13 -69 27
-80 31 -14 5 -17 5 -10 -2z" />
  </g>
</svg>
